name rise45.9887peak57.8056fall74.9286.mot
datacolumns 19
datarows 27
range 4.91331300000000 4.95664600000000
endheader
time	ground_force1_vx	ground_force1_vy	ground_force1_vz	ground_force1_px	ground_force1_py	ground_force1_pz	ground_force2_vx	ground_force2_vy	ground_force2_vz	ground_force2_px	ground_force2_py	ground_force2_pz	ground_torque1_x	ground_torque1_y	ground_torque1_z	ground_torque2_x	ground_torque2_y	ground_torque2_z	
4.91331300000000	-38.99474600000000	815.26563799999997	58.17328500000000	0.13641300000000	0.00000000000000	0.11098000000000	0.00000000000000	0.00000000000000	0.00000000000000	0.00000000000000	0.00000000000000	0.00000000000000	0.00000000000000	23.46789800000000	0.00000000000000	0.00000000000000	0.00000000000000	0.00000000000000	
4.91497900000000	-39.56598700000000	814.56157299999995	58.27266100000000	0.13528800000000	0.00000000000000	0.11093400000000	0.00000000000000	0.00000000000000	0.00000000000000	0.00000000000000	0.00000000000000	0.00000000000000	0.00000000000000	23.42998100000000	0.00000000000000	0.00000000000000	0.00000000000000	0.00000000000000	
4.91665200000000	-40.15365200000000	813.76193000000001	58.35198200000000	0.13416800000000	0.00000000000000	0.11088500000000	0.00000000000000	0.00000000000000	0.00000000000000	0.00000000000000	0.00000000000000	0.00000000000000	0.00000000000000	23.39173500000000	0.00000000000000	0.00000000000000	0.00000000000000	0.00000000000000	
4.91831600000000	-40.75766400000000	812.86402499999997	58.41053300000000	0.13305500000000	0.00000000000000	0.11083300000000	0.00000000000000	0.00000000000000	0.00000000000000	0.00000000000000	0.00000000000000	0.00000000000000	0.00000000000000	23.35323400000000	0.00000000000000	0.00000000000000	0.00000000000000	0.00000000000000	
4.91997900000000	-41.37789300000000	811.86517000000003	58.44762100000000	0.13194900000000	0.00000000000000	0.11077800000000	0.00000000000000	0.00000000000000	0.00000000000000	0.00000000000000	0.00000000000000	0.00000000000000	0.00000000000000	23.31454800000000	0.00000000000000	0.00000000000000	0.00000000000000	0.00000000000000	
4.92165300000000	-42.01415500000000	810.76267900000005	58.46257800000000	0.13085200000000	0.00000000000000	0.11071900000000	-1.34602700000000	3.84095200000000	0.74039700000000	0.00000000000000	0.00000000000000	0.00000000000000	0.00000000000000	23.27573500000000	0.00000000000000	0.00000000000000	0.20529100000000	0.00000000000000	
4.92331500000000	-42.66621200000000	809.55386199999998	58.45476000000000	0.12976600000000	0.00000000000000	0.11065600000000	-2.19291200000000	7.29450300000000	1.26876800000000	0.00000000000000	0.00000000000000	0.00000000000000	0.00000000000000	23.23684600000000	0.00000000000000	0.00000000000000	0.36066200000000	0.00000000000000	
4.92498500000000	-43.33376800000000	808.23603500000002	58.42355300000000	0.12869000000000	0.00000000000000	0.11059000000000	-3.15853300000000	11.45189300000000	1.88403500000000	0.00000000000000	0.00000000000000	0.00000000000000	0.00000000000000	23.19791900000000	0.00000000000000	0.00000000000000	0.54323300000000	0.00000000000000	
4.92665300000000	-44.01647200000000	806.80651699999999	58.36837200000000	0.12762600000000	0.00000000000000	0.11052000000000	-4.21575700000000	16.26449800000000	2.57275200000000	0.00000000000000	0.00000000000000	0.00000000000000	0.00000000000000	23.15898400000000	0.00000000000000	0.00000000000000	0.74951500000000	0.00000000000000	
4.92831900000000	-44.71391400000000	805.26263400000005	58.28866500000000	0.12657600000000	0.00000000000000	0.11044700000000	-5.33001000000000	21.65206700000000	3.31669200000000	0.00000000000000	0.00000000000000	0.00000000000000	0.00000000000000	23.12005800000000	0.00000000000000	0.00000000000000	0.97459500000000	0.00000000000000	
4.92998000000000	-45.42562500000000	803.60171800000001	58.18391600000000	0.12553800000000	0.00000000000000	0.11037000000000	-6.46152800000000	27.50868200000000	4.09405100000000	0.32370500000000	0.00000000000000	-0.05822800000000	0.00000000000000	23.08114600000000	0.00000000000000	0.00000000000000	2.16150100000000	0.00000000000000	
4.93165400000000	-46.15107700000000	801.82111599999996	58.05364300000000	0.12451500000000	0.00000000000000	0.11028900000000	-7.56823800000000	33.71151900000000	4.88105900000000	0.32980400000000	0.00000000000000	-0.05873100000000	0.00000000000000	23.04224000000000	0.00000000000000	0.00000000000000	2.62182100000000	0.00000000000000	
4.93331300000000	-46.88968100000000	799.91818400000000	57.89740400000000	0.12350600000000	0.00000000000000	0.11020400000000	-8.60890100000000	40.13127500000000	5.65380600000000	0.33556400000000	0.00000000000000	-0.05917400000000	0.00000000000000	23.00332000000000	0.00000000000000	0.00000000000000	3.08776100000000	0.00000000000000	
4.93499600000000	-47.64078800000000	797.89029800000003	57.71479600000000	0.12251300000000	0.00000000000000	0.11011600000000	-9.54610000000000	46.64275900000000	6.39000300000000	0.34101500000000	0.00000000000000	-0.05956700000000	0.00000000000000	22.96435100000000	0.00000000000000	0.00000000000000	3.54692000000000	0.00000000000000	
4.93664700000000	-48.40368800000000	795.73485200000005	57.50546100000000	0.12153500000000	0.00000000000000	0.11002300000000	-10.34868600000000	53.13426700000000	7.07048700000000	0.34618400000000	0.00000000000000	-0.05991900000000	0.00000000000000	22.92528400000000	0.00000000000000	0.00000000000000	3.98805300000000	0.00000000000000	
4.93831500000000	-49.17760800000000	793.44926399999997	57.26908300000000	0.12057300000000	0.00000000000000	0.10992700000000	-10.99343500000000	59.51473000000000	7.68027700000000	0.35108900000000	0.00000000000000	-0.06023700000000	0.00000000000000	22.88605900000000	0.00000000000000	0.00000000000000	4.40176700000000	0.00000000000000	
4.93998000000000	-49.96171400000000	791.03097800000000	57.00539200000000	0.11962800000000	0.00000000000000	0.10982700000000	-11.46584000000000	65.71816800000001	8.20916100000000	0.35575000000000	0.00000000000000	-0.06052700000000	0.00000000000000	22.84659900000000	0.00000000000000	0.00000000000000	4.78098100000000	0.00000000000000	
4.94165200000000	-50.75511000000000	788.47747000000004	56.71416400000000	0.11869800000000	0.00000000000000	0.10972400000000	-11.76007900000000	71.70539200000000	8.65178500000000	0.36017900000000	0.00000000000000	-0.06079300000000	0.00000000000000	22.80681300000000	0.00000000000000	0.00000000000000	5.12111900000000	0.00000000000000	
4.94331600000000	-51.55683700000000	785.78625000000000	56.39522600000000	0.11778400000000	0.00000000000000	0.10961700000000	-11.87827200000000	77.46322200000000	9.00734600000000	0.36439000000000	0.00000000000000	-0.06104100000000	0.00000000000000	22.76659800000000	0.00000000000000	0.00000000000000	5.42007600000000	0.00000000000000	
4.94498700000000	-52.36587500000000	782.95486800000003	56.04845300000000	0.11688700000000	0.00000000000000	0.10950600000000	-11.82922000000000	83.00170799999999	9.27895300000000	0.36839100000000	0.00000000000000	-0.06127300000000	0.00000000000000	22.72583600000000	0.00000000000000	0.00000000000000	5.67797700000000	0.00000000000000	
4.94665400000000	-53.18114200000000	779.98091799999997	55.67377100000000	0.11600500000000	0.00000000000000	0.10939100000000	-11.62681500000000	88.34991100000001	9.47277600000000	0.37219400000000	0.00000000000000	-0.06149300000000	0.00000000000000	22.68439500000000	0.00000000000000	0.00000000000000	5.89679500000000	0.00000000000000	
4.94831800000000	-54.00149500000000	776.86204499999997	55.27116100000000	0.11513800000000	0.00000000000000	0.10927300000000	-11.28830000000000	93.55086500000000	9.59710200000000	0.37580500000000	0.00000000000000	-0.06170200000000	0.00000000000000	22.64213000000000	0.00000000000000	0.00000000000000	6.07987700000000	0.00000000000000	
4.94998000000000	-54.82573100000000	773.59594600000003	54.84065300000000	0.11428700000000	0.00000000000000	0.10915200000000	-10.83256700000000	98.65625500000000	9.66136600000000	0.37923200000000	0.00000000000000	-0.06190400000000	0.00000000000000	22.59888400000000	0.00000000000000	0.00000000000000	6.23143500000000	0.00000000000000	
4.95165100000000	-55.65258700000000	770.18038000000001	54.38233500000000	0.11345000000000	0.00000000000000	0.10902700000000	-10.27860700000000	103.72131800000000	9.67527200000000	0.38248000000000	0.00000000000000	-0.06209900000000	0.00000000000000	22.55448600000000	0.00000000000000	0.00000000000000	6.35605500000000	0.00000000000000	
4.95331800000000	-56.48073900000000	766.61316799999997	53.89634700000000	0.11262700000000	0.00000000000000	0.10889900000000	-9.64422300000000	108.80031500000000	9.64802900000000	0.38555600000000	0.00000000000000	-0.06229000000000	0.00000000000000	22.50875600000000	0.00000000000000	0.00000000000000	6.45825700000000	0.00000000000000	
4.95498200000000	-57.30880900000000	762.89220599999999	53.38288500000000	0.11181700000000	0.00000000000000	0.10876800000000	-8.94504500000000	113.94284500000001	9.58776500000000	0.38846500000000	0.00000000000000	-0.06247700000000	0.00000000000000	22.46150100000000	0.00000000000000	0.00000000000000	6.54212700000000	0.00000000000000	
4.95664600000000	-58.13535900000000	759.01546199999996	52.84220100000000	0.11102000000000	0.00000000000000	0.10863400000000	-8.19389600000000	119.19112000000000	9.50112000000000	0.39121100000000	0.00000000000000	-0.06266300000000	0.00000000000000	22.41251700000000	0.00000000000000	0.00000000000000	6.61105900000000	0.00000000000000	
